<?xml version="1.0" encoding="UTF-8"?>
<svg id="Layer_2" data-name="Layer 2" xmlns="http://www.w3.org/2000/svg" viewBox="0 0 507.1 442.22">
  <defs>
    <style>
      .cls-1 {
        fill: none;
        stroke: #5fb982;
        stroke-miterlimit: 10;
        stroke-width: 20px;
      }
    </style>
  </defs>
  <path class="cls-1" d="M360.29,357.32c-28.86,19.5-63.66,30.88-101.11,30.88-99.87,0-180.84-80.96-180.84-180.84S159.3,26.53,259.18,26.53s180.84,80.96,180.84,180.84c0,52.84-17.68,95.65-53.81,128.71"/>
  <line class="cls-1" x1="299.08" y1="245.95" x2="426.78" y2="380.16"/>
  <path class="cls-1" d="M259.18,292.22l65.14-80.64c12.08-16.58,12.3-33.77,12-45.99-1.04-42.93-34.3-67.82-77.14-67.82-42.84,0-76.1,24.88-77.14,67.82-.29,12.21-.08,29.4,12,45.99,0,0,65.14,80.64,65.14,80.64Z"/>
  <circle class="cls-1" cx="260.9" cy="170.02" r="34.18"/>
</svg>